<svg width="150" height="45" viewBox="0 0 150 45" fill="none" xmlns="http://www.w3.org/2000/svg">
<path d="M46.5693 5.632C47.4693 5.92 48.0813 6.628 48.0813 7.72C48.0813 9.16 46.9533 10 44.7933 10H40.6173V1.6H44.5533C46.5693 1.6 47.6493 2.452 47.6493 3.784C47.6493 4.648 47.2173 5.284 46.5693 5.632ZM44.3853 2.824H42.1773V5.14H44.3853C45.4653 5.14 46.0773 4.756 46.0773 3.988C46.0773 3.208 45.4653 2.824 44.3853 2.824ZM44.6973 8.776C45.8733 8.776 46.5093 8.404 46.5093 7.564C46.5093 6.724 45.8733 6.352 44.6973 6.352H42.1773V8.776H44.6973ZM54.3062 3.592H55.8062V10H54.3782V9.184C53.8982 9.772 53.1422 10.084 52.3142 10.084C50.6702 10.084 49.5542 9.184 49.5542 7.252V3.592H51.0542V7.048C51.0542 8.212 51.6062 8.764 52.5542 8.764C53.5982 8.764 54.3062 8.116 54.3062 6.832V3.592ZM62.3301 3.592H63.7701L60.7701 10.516C60.1821 11.968 59.3661 12.412 58.2981 12.412C57.6621 12.412 56.9901 12.196 56.5821 11.824L57.1821 10.72C57.4701 10.996 57.8781 11.164 58.2861 11.164C58.8141 11.164 59.1261 10.912 59.4141 10.276L59.5221 10.024L56.7261 3.592H58.2861L60.3021 8.332L62.3301 3.592ZM71.66 3.52C73.196 3.52 74.336 4.396 74.336 6.328V10H72.836V6.52C72.836 5.38 72.272 4.828 71.312 4.828C70.244 4.828 69.524 5.476 69.524 6.76V10H68.024V3.592H69.452V4.42C69.944 3.832 70.724 3.52 71.66 3.52ZM79.1775 10.084C77.2095 10.084 75.7695 8.716 75.7695 6.796C75.7695 4.876 77.2095 3.52 79.1775 3.52C81.1695 3.52 82.5975 4.876 82.5975 6.796C82.5975 8.716 81.1695 10.084 79.1775 10.084ZM79.1775 8.8C80.2695 8.8 81.0855 8.02 81.0855 6.796C81.0855 5.572 80.2695 4.792 79.1775 4.792C78.0975 4.792 77.2815 5.572 77.2815 6.796C77.2815 8.02 78.0975 8.8 79.1775 8.8ZM92.5201 3.592H93.8521L91.4881 10H90.0481L88.3921 5.584L86.7121 10H85.2721L82.9201 3.592H84.3361L86.0281 8.32L87.7921 3.592H89.0521L90.7801 8.344L92.5201 3.592ZM100.648 3.52C102.496 3.52 103.564 4.396 103.564 6.244V10H102.148V9.22C101.788 9.772 101.092 10.084 100.132 10.084C98.6678 10.084 97.7438 9.28 97.7438 8.164C97.7438 7.096 98.4638 6.256 100.408 6.256H102.064V6.16C102.064 5.284 101.536 4.768 100.468 4.768C99.7478 4.768 99.0038 5.008 98.5238 5.404L97.9358 4.312C98.6198 3.784 99.6158 3.52 100.648 3.52ZM100.444 8.992C101.176 8.992 101.812 8.656 102.064 7.996V7.252H100.516C99.4958 7.252 99.2198 7.636 99.2198 8.104C99.2198 8.644 99.6758 8.992 100.444 8.992ZM108.921 8.584L109.341 9.652C108.981 9.94 108.441 10.084 107.901 10.084C106.497 10.084 105.693 9.34 105.693 7.924V4.84H104.637V3.64H105.693V2.176H107.193V3.64H108.909V4.84H107.193V7.888C107.193 8.512 107.505 8.848 108.081 8.848C108.393 8.848 108.693 8.764 108.921 8.584Z" fill="black"/>
<path fill-rule="evenodd" clip-rule="evenodd" d="M141.274 12C136.947 12 133.469 15.4778 133.469 19.8056C133.469 24.1335 136.947 27.6113 141.274 27.6113C145.602 27.6113 149.08 24.1335 149.08 19.8056C149.08 15.3232 145.602 12 141.274 12Z" fill="url(#paint0_linear_153_602)"/>
<path d="M141.687 29.827C141.403 30.806 141.274 31.6303 140.991 32.1971L140.862 32.4804C140.733 33.176 140.167 33.5882 139.471 33.5882H139.059C138.776 33.5882 138.492 33.4594 138.235 33.176C138.106 32.8926 137.951 32.6093 137.951 32.3516L138.363 29.5694C138.363 29.4406 138.492 29.1573 138.647 29.0027C134.602 28.0238 131.691 24.4172 131.691 20.0893C131.691 19.3938 131.82 18.827 131.82 18.1315H120.408C119.712 18.1315 119.146 17.7193 119.017 17.0237L118.45 14.6537C118.167 13.8293 117.471 13.1338 116.492 13.1338H113.143C112.448 13.1338 112.036 13.7005 112.036 14.2415C112.036 14.9371 112.602 15.3493 113.143 15.3493H114.947C115.642 15.3493 116.209 15.7614 116.338 16.457L120.794 34.5671C121.078 35.3915 121.773 36.087 122.752 36.087H140.991C141.97 36.087 142.666 35.5203 142.949 34.5671L144.469 28.4359C143.49 28.8481 142.511 29.0027 141.532 29.1315C141.841 29.5437 141.841 29.6725 141.687 29.827ZM121.207 24.8036C121.078 24.1081 120.794 23.4125 120.64 22.8458L120.511 22.279C120.382 21.9956 120.511 21.7123 120.64 21.4547C120.769 21.1713 121.207 21.0425 121.464 21.0425H122.726C123.422 21.0425 123.989 21.4547 123.989 22.1502L124.401 24.649C124.401 24.9324 124.401 25.2158 124.118 25.4734C123.989 25.7568 123.551 25.8856 123.293 25.8856H122.598C121.902 25.7825 121.361 25.3704 121.207 24.8036ZM125.534 33.1502C125.406 33.4336 124.968 33.5624 124.71 33.5624H124.581C123.886 33.5624 123.319 33.1502 123.19 32.4547L123.061 32.1713C122.933 31.4758 122.649 30.6514 122.366 29.6725C122.237 29.3891 122.366 29.1057 122.495 28.8481C122.623 28.5648 123.061 28.4359 123.319 28.4359H124.014C124.71 28.4359 125.277 28.8481 125.406 29.5437L125.818 32.3259C125.818 32.6093 125.818 33.0214 125.534 33.1502ZM130.687 32.6093C130.687 33.176 130.274 33.5882 129.708 33.5882C129.141 33.5882 128.6 33.176 128.6 32.6093L128.188 29.6725C128.188 29.3891 128.188 29.1057 128.471 28.8481C128.6 28.5648 129.038 28.4359 129.296 28.4359H129.708C130.403 28.4359 130.97 29.0027 130.97 29.6982V32.635H130.687V32.6093ZM130.687 24.6748C130.687 25.3704 130.12 25.9371 129.424 25.9371H128.471C127.776 25.9371 127.209 25.5249 127.08 24.8294L126.797 22.176C126.797 21.8926 126.797 21.6092 127.08 21.3516C127.363 21.0682 127.647 20.9394 127.904 20.9394H129.579C130.274 20.9394 130.687 21.5062 130.687 22.2017V24.6748ZM135.993 29.6725L135.581 32.6093C135.452 33.176 135.015 33.5882 134.474 33.5882C133.933 33.5882 133.495 33.176 133.495 32.6093V29.6725C133.495 28.9769 134.061 28.4102 134.757 28.4102H135.169C135.452 28.4102 135.736 28.539 135.993 28.8224V29.6725Z" fill="url(#paint1_linear_153_602)"/>
<path fill-rule="evenodd" clip-rule="evenodd" d="M141.274 13.1074L143.232 16.9974L147.689 17.6929L144.495 20.7585L145.19 25.0864L141.3 23.1285L137.41 25.0864L138.106 20.7585L135.04 17.6929L139.368 16.9974L141.274 13.1074Z" fill="white"/>
<path d="M124.014 45.0004C125.864 45.0004 127.363 43.4434 127.363 41.5227C127.363 39.602 125.864 38.0449 124.014 38.0449C122.165 38.0449 120.666 39.602 120.666 41.5227C120.666 43.4434 122.165 45.0004 124.014 45.0004Z" fill="url(#paint2_linear_153_602)"/>
<path d="M140.167 45.0004C142.016 45.0004 143.516 43.4434 143.516 41.5227C143.516 39.602 142.016 38.0449 140.167 38.0449C138.317 38.0449 136.818 39.602 136.818 41.5227C136.818 43.4434 138.317 45.0004 140.167 45.0004Z" fill="url(#paint3_linear_153_602)"/>
<path fill-rule="evenodd" clip-rule="evenodd" d="M37.8947 38.1786C36.3748 39.2863 34.0047 39.6985 30.7846 39.6985H26.1991C25.5035 39.6985 24.9368 39.6985 24.1124 39.6985C23.4169 39.6985 22.7213 39.5697 22.0258 39.4151C21.3302 39.2863 20.6347 39.0029 20.0679 38.8484C19.3724 38.565 18.8056 38.1528 18.3934 37.7406C17.9813 37.3285 17.5691 36.6329 17.2857 35.9373C17.0023 35.2418 16.8735 34.4174 16.8735 33.2839V17.415H21.0468V33.1551C21.0468 34.8296 22.5668 35.654 25.7869 35.654H31.5059C34.5715 35.654 36.0914 34.8296 36.0914 33.1551V17.415H40.2647V33.4385C40.1359 35.5252 39.4403 37.1996 37.8947 38.1786Z" fill="#4A4A4A"/>
<path fill-rule="evenodd" clip-rule="evenodd" d="M71.7707 39.9821V25.3498L62.7028 38.7456C62.4194 39.1578 62.0072 39.5699 61.5951 39.8533C61.1829 40.1367 60.7707 40.2655 60.204 40.2655C59.225 40.2655 58.4007 39.8533 57.7051 38.8744L48.6372 25.221V39.9821H44.4639V19.7853C44.4639 18.961 44.7472 18.3942 45.1594 17.9821C45.5716 17.5699 46.1383 17.2865 46.8339 17.2865C47.8128 17.2865 48.6372 17.6987 49.2039 18.3942L60.4873 34.5465L71.6419 18.523C72.2087 17.6987 72.9042 17.2607 73.8832 17.2607C74.5787 17.2607 75.1455 17.5441 75.5576 17.9563C75.9698 18.3685 76.2532 19.064 76.2532 19.9141V39.8276H71.7965V39.9821H71.7707Z" fill="#4A4A4A"/>
<path fill-rule="evenodd" clip-rule="evenodd" d="M80.1173 39.8527V17.4404H84.2906V39.8527H80.1173Z" fill="#4A4A4A"/>
<path d="M112.705 39.9815L109.228 33.8503H96.1408L92.7919 39.9815H87.7684L100.314 18.9603C100.881 17.9814 101.705 17.4404 102.684 17.4404C103.663 17.4404 104.487 18.0072 105.054 18.9603L117.317 39.9815H112.705ZM102.684 23.0048L98.6397 29.7028H106.729L102.684 23.0048Z" fill="#4A4A4A"/>
<path fill-rule="evenodd" clip-rule="evenodd" d="M12.6745 29.8062C12.6745 36.6329 10.1757 39.5439 5.71899 40.5228C1.39111 41.3472 0 41.3472 0 41.3472V36.7617C1.67448 36.6329 4.32788 36.3495 6.00236 35.7828C7.52227 35.216 8.65576 33.6961 8.65576 29.8062L8.78457 21.5884V17.415H12.9579L12.6745 29.8062Z" fill="#4A4A4A"/>
<defs>
<linearGradient id="paint0_linear_153_602" x1="133.538" y1="19.7908" x2="149.08" y2="19.7908" gradientUnits="userSpaceOnUse">
<stop stop-color="#EB712A"/>
<stop offset="0.2311" stop-color="#EF8528"/>
<stop offset="0.4715" stop-color="#F29426"/>
<stop offset="0.6242" stop-color="#F39A24"/>
</linearGradient>
<linearGradient id="paint1_linear_153_602" x1="112.137" y1="24.5956" x2="144.711" y2="24.5956" gradientUnits="userSpaceOnUse">
<stop stop-color="#343434"/>
<stop offset="0.5455" stop-color="#696968"/>
<stop offset="1" stop-color="#696968"/>
</linearGradient>
<linearGradient id="paint2_linear_153_602" x1="120.667" y1="41.5186" x2="127.372" y2="41.5186" gradientUnits="userSpaceOnUse">
<stop stop-color="#343434"/>
<stop offset="0.5455" stop-color="#696968"/>
<stop offset="1" stop-color="#696968"/>
</linearGradient>
<linearGradient id="paint3_linear_153_602" x1="136.775" y1="41.5186" x2="143.476" y2="41.5186" gradientUnits="userSpaceOnUse">
<stop stop-color="#343434"/>
<stop offset="0.5455" stop-color="#696968"/>
<stop offset="1" stop-color="#696968"/>
</linearGradient>
</defs>
</svg>
