<svg width="153" height="45" viewBox="0 0 153 45" fill="none" xmlns="http://www.w3.org/2000/svg">
<path d="M38.6687 27.2901V36.1029H31.3276V6.87305H38.6687V21.6961H41.9555L46.635 13.8644H54.3259L48.0339 24.562L54.3305 36.1029H46.635L41.8116 27.2932L38.6687 27.2901Z" fill="#ED017F"/>
<path d="M76.9156 29.8062L76.8444 20.2275V19.1086C76.5658 15.7522 73.5591 13.3057 70.1331 13.5858H60.5621C60.171 13.5471 59.7771 13.5471 59.386 13.5858C58.59 13.6616 57.8168 13.8936 57.1105 14.2686C56.4042 14.6435 55.7788 15.154 55.27 15.7709C54.7612 16.3877 54.3791 17.0989 54.1454 17.8636C53.9117 18.6283 53.831 19.4316 53.9081 20.2275V30.925C54.1881 34.2814 57.1948 36.7279 60.5513 36.4494H71.3834C74.7476 36.1693 77.1941 33.1626 76.9156 29.8062ZM69.6425 29.4565C69.6309 29.6559 69.576 29.8505 69.4815 30.0266C69.387 30.2026 69.2552 30.356 69.0954 30.4759C68.9355 30.5958 68.7515 30.6794 68.556 30.7209C68.3605 30.7624 68.1583 30.7607 67.9636 30.7161H62.5119C61.6732 30.6449 61.1826 29.9424 61.2538 29.1067V20.441C61.2918 20.052 61.4823 19.6938 61.7835 19.4447C62.0848 19.1957 62.4724 19.0759 62.8616 19.1117H68.3148C69.0886 19.1814 69.6441 19.9505 69.5729 20.7907H69.6441L69.6425 29.4565ZM91.3177 19.528C89.6045 19.5225 87.9027 19.8061 86.2838 20.3667V35.9588H78.9427V13.8643H85.3755L85.7948 15.9627C87.1226 15.1889 88.4518 14.4941 89.8507 14.1444C90.991 13.7274 92.1957 13.5142 93.4099 13.5146H95.2281C96.0048 13.4602 96.7846 13.5604 97.5224 13.8092C98.2602 14.0581 98.9413 14.4507 99.5264 14.9645C100.111 15.4782 100.589 16.1028 100.931 16.8021C101.273 17.5015 101.473 18.2618 101.52 19.039V36.1028H94.3244V20.9996C94.2954 20.6003 94.1202 20.2257 93.8323 19.9474C93.548 19.6803 93.1732 19.5306 92.7831 19.528H91.3177ZM125.159 37.2881V13.8643H108.589C106.974 14.0411 105.492 14.8421 104.46 16.0963C103.428 17.3506 102.927 18.9586 103.064 20.5772V29.6669C103.17 31.2326 103.891 32.6929 105.071 33.728C106.25 34.7631 107.792 35.2887 109.358 35.1898H110.826C113.273 35.1898 115.65 34.84 117.957 34.351L117.818 36.4494C117.815 36.8389 117.665 37.213 117.398 37.497C117.108 37.7539 116.737 37.9021 116.349 37.9164C113.623 37.9164 109.567 37.7771 104.253 37.3577V42.7413C109.147 43.2303 113.972 43.58 118.867 43.58H119.641C122.924 43.3015 125.369 40.5037 125.159 37.2881ZM117.957 29.1779C116.294 29.4607 114.61 29.6031 112.923 29.6035V29.5323H111.874C111.686 29.5291 111.5 29.4884 111.328 29.4127C111.155 29.3369 111 29.2275 110.87 29.091C110.74 28.9544 110.639 28.7933 110.572 28.6172C110.506 28.4411 110.475 28.2535 110.481 28.0653V20.783C110.551 19.9427 111.32 19.4537 112.159 19.5234H117.962L117.957 29.1779ZM142.639 13.51C138.024 13.5811 133.48 13.79 128.935 14.3502L128.65 19.3191L133.894 18.8997L139.908 18.6893C140.102 18.6839 140.295 18.7183 140.476 18.7904C140.656 18.8625 140.82 18.9708 140.957 19.1086C141.235 19.4584 141.446 19.8081 141.446 20.1578V21.8353H132.146C128.93 22.0457 126.42 24.9116 126.692 28.1287V30.925C126.747 31.6967 126.952 32.4501 127.298 33.142C127.644 33.834 128.123 34.451 128.708 34.9575C129.292 35.4641 129.971 35.8504 130.705 36.0941C131.439 36.3379 132.214 36.4345 132.986 36.3782H134.453C135.647 36.3798 136.831 36.167 137.95 35.7499C139.417 35.4002 140.746 34.7008 142.004 33.8621L142.495 35.9588H148.926V18.9694C148.722 15.7522 145.855 13.3057 142.639 13.51ZM141.659 29.8015C140.028 30.3024 138.332 30.563 136.626 30.5753V30.7161H135.576C135.384 30.7161 135.193 30.6781 135.015 30.6043C134.837 30.5304 134.675 30.4223 134.539 30.2859C134.402 30.1495 134.294 29.9876 134.221 29.8094C134.147 29.6313 134.109 29.4403 134.109 29.2475V28.8297C134.104 28.6355 134.138 28.4422 134.211 28.2618C134.283 28.0813 134.391 27.9176 134.529 27.7806C134.656 27.6264 134.816 27.5025 134.997 27.4179C135.179 27.3333 135.376 27.2901 135.576 27.2916H141.659V29.8015ZM124.39 41.6922H127.116V44.5596H124.39V41.6922ZM132.291 44.6989C131.771 44.698 131.254 44.6278 130.753 44.49L129.565 43.8601C129.27 43.5817 129.033 43.2491 128.865 42.8806C128.554 42.2205 128.461 41.4782 128.6 40.7616C128.739 40.045 129.103 39.3915 129.639 38.8959L130.758 38.3373C131.212 38.2214 131.682 38.1739 132.15 38.1965L133.269 38.3373L134.249 38.6855V40.3644H133.899L133.619 40.0844C133.353 39.8756 133.042 39.732 132.71 39.665L132.15 39.5954C131.661 39.5954 131.242 39.7346 130.962 40.0844C130.628 40.4699 130.454 40.9676 130.473 41.4771C130.473 41.8964 130.612 42.455 130.962 42.8048C131.123 42.9494 131.31 43.0609 131.514 43.1329C131.718 43.2049 131.934 43.2359 132.15 43.2241L132.78 43.1545L133.34 42.9456L133.619 42.7351L133.899 42.5262H134.249V44.2037L133.269 44.623L132.291 44.6989ZM141.803 41.4833C141.803 40.5734 141.523 39.665 140.893 39.0352C140.194 38.4766 139.355 38.0572 138.447 38.1965C137.534 38.1861 136.645 38.4844 135.923 39.0429C135.364 39.6727 134.945 40.5811 135.084 41.491C135.076 42.3549 135.373 43.194 135.923 43.8601C136.617 44.447 137.496 44.769 138.405 44.769C139.314 44.769 140.193 44.447 140.887 43.8601C141.52 43.1607 141.87 42.3916 141.803 41.4833ZM139.637 42.3916L139.357 42.9518L138.937 43.3015C138.799 43.4107 138.623 43.4607 138.448 43.4408C138.238 43.4408 137.959 43.4408 137.819 43.3015C137.61 43.2303 137.469 43.1607 137.399 43.0214L137.05 42.4612L136.98 41.5529C136.928 41.2253 136.952 40.8902 137.05 40.5734L137.399 39.9451L137.819 39.665L138.379 39.5954L138.863 39.6619C138.962 39.6636 139.058 39.6902 139.144 39.7392C139.229 39.7881 139.301 39.8579 139.352 39.942L139.632 40.5703L139.702 41.4802L139.637 42.3916ZM149.002 40.0844V44.49H146.973V40.6445L146.834 40.0844L146.554 39.8043L145.926 39.7346L145.296 39.8754L144.807 40.0844V44.49H142.848V38.3373H144.877V38.9655L145.855 38.4069C146.185 38.2631 146.543 38.1913 146.904 38.1965C147.282 38.1904 147.654 38.2925 147.976 38.4907C148.298 38.6889 148.557 38.975 148.722 39.3153C149.046 38.9758 149.424 38.6924 149.841 38.4766C150.192 38.3102 150.572 38.2151 150.96 38.1965C151.518 38.0572 152.078 38.3373 152.428 38.7566C152.847 39.3153 153.056 39.8754 152.987 40.5037V44.5596H151.029V40.7142L150.89 40.154C150.857 40.0835 150.809 40.0215 150.748 39.9731C150.687 39.9248 150.616 39.8913 150.54 39.8754L149.98 39.8043L149.491 39.8754L149.002 40.0844Z" fill="#ED017F"/>
<path d="M28.3209 8.34159C26.805 6.81933 24.9929 5.62436 22.9966 4.83063C21.0003 4.0369 18.8623 3.66131 16.715 3.72709C14.6212 3.68957 12.5405 4.06505 10.5918 4.83205C8.64317 5.59906 6.86477 6.74255 5.35825 8.19719C3.85174 9.65182 2.64665 11.3891 1.81186 13.3097C0.977063 15.2303 0.528934 17.2965 0.493079 19.3904V19.9537C0.211443 28.7571 7.20593 36.1029 16.0156 36.3087H16.715C25.5247 36.5191 32.8627 29.5262 33.0066 20.7166V19.8778C33.0685 17.7351 32.6839 15.6029 31.8773 13.6168C31.0706 11.6308 29.8595 9.83427 28.3209 8.34159Z" fill="#F9A024"/>
<path d="M16.715 36.6585C12.3805 36.7342 8.19163 35.0938 5.06122 32.0947C1.93081 29.0956 0.112521 24.9809 0.00253521 20.6471V19.9476C-0.0735761 15.6129 1.5667 11.4239 4.5659 8.29337C7.56509 5.16287 11.6801 3.34471 16.014 3.23512H16.7135C18.8575 3.18392 20.9906 3.55561 22.9909 4.32897C24.9912 5.10232 26.8196 6.2622 28.3716 7.74232C29.9236 9.22245 31.1688 10.9938 32.036 12.9553C32.9032 14.9167 33.3755 17.0298 33.4259 19.1739V19.9476C33.4833 22.0932 33.1159 24.2289 32.3448 26.232C31.5736 28.235 30.4141 30.0659 28.9327 31.6191C27.4514 33.1723 25.6776 34.4173 23.7133 35.2824C21.749 36.1476 19.6331 36.6158 17.4872 36.6601L16.715 36.6585ZM16.715 4.07694C12.6098 3.98253 8.6345 5.51877 5.65959 8.34923C2.68469 11.1797 0.952664 15.0737 0.842802 19.1785V19.9522C0.703531 28.553 7.41483 35.6852 16.0852 35.8245H16.715C18.7523 35.8887 20.782 35.5476 22.6864 34.8209C24.5907 34.0942 26.3317 32.9965 27.8083 31.5913C29.2848 30.1862 30.4675 28.5017 31.2876 26.6357C32.1078 24.7696 32.549 22.7593 32.5857 20.7213V19.9476C32.7961 11.418 25.944 4.28584 17.4207 4.14657L16.715 4.07694Z" fill="#ED017F"/>
<path d="M8.32471 14.4251C8.89793 13.9068 9.64902 13.6296 10.4215 13.6513C11.2856 13.6374 12.1431 13.804 12.9392 14.1403C13.804 14.486 14.6251 14.9322 15.3857 15.4696L15.7355 15.1895C15.2465 14.21 14.4774 13.4409 13.569 12.8126C12.5876 12.2583 11.479 11.9687 10.3519 11.9724C9.75374 11.9876 9.16272 12.1059 8.6048 12.3221C8.03882 12.5468 7.55355 12.9367 7.21209 13.4409C6.86237 13.8602 6.65192 14.4204 6.43837 14.9094C6.2879 15.4312 6.24059 15.9773 6.2991 16.5172H6.78809C7.1544 15.7236 7.67703 15.012 8.32471 14.4251ZM18.883 12.8915C19.5809 12.4025 20.4211 12.1178 21.2599 11.8424C21.9593 11.6335 22.798 11.7727 23.4975 12.1921C24.2454 12.6585 24.9075 13.25 25.455 13.9407L25.8744 13.7999C25.8047 13.3109 25.6639 12.6811 25.3142 12.2617C25.0609 11.7308 24.6757 11.2737 24.1954 10.934C23.776 10.5147 23.1478 10.3042 22.5876 10.1603C21.9897 10.0195 21.3672 10.0195 20.7693 10.1603C19.7054 10.4189 18.7299 10.9568 17.9434 11.7185C17.157 12.4802 16.5881 13.4381 16.2956 14.4932L16.715 14.7036L18.8118 12.8157M26.3634 23.8645C26.0349 24.6863 25.5634 25.4434 24.9707 26.1006C24.6921 26.3807 24.412 26.7304 23.9927 27.0105L22.9435 27.7842C21.3973 28.6105 19.7163 29.1549 17.9793 29.392C16.2369 29.6598 14.4606 29.6126 12.735 29.2527C11.8879 29.0422 11.0672 28.737 10.2884 28.3429C9.44971 27.9931 8.75026 27.4345 7.98118 26.8743L7.77072 27.0848C8.89052 28.7029 10.5123 29.907 12.3852 30.5108C14.2665 31.1959 16.2969 31.3647 18.2655 30.9998C20.235 30.7418 22.1092 29.9973 23.7188 28.8334C25.3234 27.6074 26.3799 25.798 26.6589 23.798H26.3634V23.8645ZM16.4349 18.6171L17.0647 24.4201L17.4144 24.3504L16.715 18.6171H16.4349Z" fill="#ED017F"/>
<path d="M45.6007 10V1.6H49.5367C50.5447 1.6 51.3127 1.8 51.8407 2.2C52.3687 2.592 52.6327 3.12 52.6327 3.784C52.6327 4.232 52.5287 4.616 52.3207 4.936C52.1127 5.248 51.8327 5.492 51.4807 5.668C51.1367 5.836 50.7607 5.92 50.3527 5.92L50.5687 5.488C51.0407 5.488 51.4647 5.576 51.8407 5.752C52.2167 5.92 52.5127 6.168 52.7287 6.496C52.9527 6.824 53.0647 7.232 53.0647 7.72C53.0647 8.44 52.7887 9 52.2367 9.4C51.6847 9.8 50.8647 10 49.7767 10H45.6007ZM47.1607 8.776H49.6807C50.2647 8.776 50.7127 8.68 51.0247 8.488C51.3367 8.296 51.4927 7.988 51.4927 7.564C51.4927 7.148 51.3367 6.844 51.0247 6.652C50.7127 6.452 50.2647 6.352 49.6807 6.352H47.0407V5.14H49.3687C49.9127 5.14 50.3287 5.044 50.6167 4.852C50.9127 4.66 51.0607 4.372 51.0607 3.988C51.0607 3.596 50.9127 3.304 50.6167 3.112C50.3287 2.92 49.9127 2.824 49.3687 2.824H47.1607V8.776ZM57.2976 10.084C56.7536 10.084 56.2736 9.984 55.8576 9.784C55.4416 9.576 55.1176 9.264 54.8856 8.848C54.6536 8.424 54.5376 7.892 54.5376 7.252V3.592H56.0376V7.048C56.0376 7.624 56.1656 8.056 56.4216 8.344C56.6856 8.624 57.0576 8.764 57.5376 8.764C57.8896 8.764 58.1936 8.692 58.4496 8.548C58.7136 8.404 58.9176 8.188 59.0616 7.9C59.2136 7.612 59.2896 7.256 59.2896 6.832V3.592H60.7896V10H59.3616V8.272L59.6136 8.8C59.3976 9.216 59.0816 9.536 58.6656 9.76C58.2496 9.976 57.7936 10.084 57.2976 10.084ZM63.2815 12.412C62.9695 12.412 62.6575 12.36 62.3455 12.256C62.0335 12.152 61.7735 12.008 61.5655 11.824L62.1655 10.72C62.3175 10.856 62.4895 10.964 62.6815 11.044C62.8735 11.124 63.0695 11.164 63.2695 11.164C63.5415 11.164 63.7615 11.096 63.9295 10.96C64.0975 10.824 64.2535 10.596 64.3975 10.276L64.7695 9.436L64.8895 9.256L67.3135 3.592H68.7535L65.7535 10.516C65.5535 10.996 65.3295 11.376 65.0815 11.656C64.8415 11.936 64.5695 12.132 64.2655 12.244C63.9695 12.356 63.6415 12.412 63.2815 12.412ZM64.6015 10.228L61.7095 3.592H63.2695L65.6215 9.124L64.6015 10.228ZM76.6434 3.52C77.1554 3.52 77.6114 3.62 78.0114 3.82C78.4194 4.02 78.7394 4.328 78.9714 4.744C79.2034 5.152 79.3194 5.68 79.3194 6.328V10H77.8194V6.52C77.8194 5.952 77.6834 5.528 77.4114 5.248C77.1474 4.968 76.7754 4.828 76.2954 4.828C75.9434 4.828 75.6314 4.9 75.3594 5.044C75.0874 5.188 74.8754 5.404 74.7234 5.692C74.5794 5.972 74.5074 6.328 74.5074 6.76V10H73.0074V3.592H74.4354V5.32L74.1834 4.792C74.4074 4.384 74.7314 4.072 75.1554 3.856C75.5874 3.632 76.0834 3.52 76.6434 3.52ZM84.114 10.084C83.458 10.084 82.874 9.944 82.362 9.664C81.85 9.376 81.446 8.984 81.15 8.488C80.854 7.992 80.706 7.428 80.706 6.796C80.706 6.156 80.854 5.592 81.15 5.104C81.446 4.608 81.85 4.22 82.362 3.94C82.874 3.66 83.458 3.52 84.114 3.52C84.778 3.52 85.366 3.66 85.878 3.94C86.398 4.22 86.802 4.604 87.09 5.092C87.386 5.58 87.534 6.148 87.534 6.796C87.534 7.428 87.386 7.992 87.09 8.488C86.802 8.984 86.398 9.376 85.878 9.664C85.366 9.944 84.778 10.084 84.114 10.084ZM84.114 8.8C84.482 8.8 84.81 8.72 85.098 8.56C85.386 8.4 85.61 8.168 85.77 7.864C85.938 7.56 86.022 7.204 86.022 6.796C86.022 6.38 85.938 6.024 85.77 5.728C85.61 5.424 85.386 5.192 85.098 5.032C84.81 4.872 84.486 4.792 84.126 4.792C83.758 4.792 83.43 4.872 83.142 5.032C82.862 5.192 82.638 5.424 82.47 5.728C82.302 6.024 82.218 6.38 82.218 6.796C82.218 7.204 82.302 7.56 82.47 7.864C82.638 8.168 82.862 8.4 83.142 8.56C83.43 8.72 83.754 8.8 84.114 8.8ZM90.2086 10L87.8566 3.592H89.2726L91.2886 9.244H90.6166L92.7286 3.592H93.9886L96.0406 9.244H95.3806L97.4566 3.592H98.7886L96.4246 10H94.9846L93.1126 4.996H93.5566L91.6486 10H90.2086ZM107.084 10V8.704L107 8.428V6.16C107 5.72 106.868 5.38 106.604 5.14C106.34 4.892 105.94 4.768 105.404 4.768C105.044 4.768 104.688 4.824 104.336 4.936C103.992 5.048 103.7 5.204 103.46 5.404L102.872 4.312C103.216 4.048 103.624 3.852 104.096 3.724C104.576 3.588 105.072 3.52 105.584 3.52C106.512 3.52 107.228 3.744 107.732 4.192C108.244 4.632 108.5 5.316 108.5 6.244V10H107.084ZM105.068 10.084C104.588 10.084 104.168 10.004 103.808 9.844C103.448 9.676 103.168 9.448 102.968 9.16C102.776 8.864 102.68 8.532 102.68 8.164C102.68 7.804 102.764 7.48 102.932 7.192C103.108 6.904 103.392 6.676 103.784 6.508C104.176 6.34 104.696 6.256 105.344 6.256H107.204V7.252H105.452C104.94 7.252 104.596 7.336 104.42 7.504C104.244 7.664 104.156 7.864 104.156 8.104C104.156 8.376 104.264 8.592 104.48 8.752C104.696 8.912 104.996 8.992 105.38 8.992C105.748 8.992 106.076 8.908 106.364 8.74C106.66 8.572 106.872 8.324 107 7.996L107.252 8.896C107.108 9.272 106.848 9.564 106.472 9.772C106.104 9.98 105.636 10.084 105.068 10.084ZM112.837 10.084C112.133 10.084 111.589 9.904 111.205 9.544C110.821 9.176 110.629 8.636 110.629 7.924V2.176H112.129V7.888C112.129 8.192 112.205 8.428 112.357 8.596C112.517 8.764 112.737 8.848 113.017 8.848C113.353 8.848 113.633 8.76 113.857 8.584L114.277 9.652C114.101 9.796 113.885 9.904 113.629 9.976C113.373 10.048 113.109 10.084 112.837 10.084ZM109.573 4.84V3.64H113.845V4.84H109.573Z" fill="black"/>
</svg>
