<svg width="145" height="95" viewBox="0 0 145 95" fill="none" xmlns="http://www.w3.org/2000/svg">
<path d="M131.365 89.8039C131.484 86.6155 131.532 83.5944 131.508 80.7391C131.484 77.8845 131.377 75.0415 131.187 72.2107C131.021 69.3792 130.759 66.4056 130.402 63.2893L140.287 61.7903C140.334 64.2404 140.334 66.5246 140.287 68.6416C140.263 70.7355 140.18 72.7933 140.037 74.8158C139.918 76.8376 139.739 78.9552 139.501 81.1674C139.288 83.3802 139.002 85.8303 138.645 88.5191L131.365 89.8039ZM134.72 59.899L132.65 58.2572L138.717 51.6201L141.714 54.5461L134.72 59.899Z" fill="white"/>
<path d="M116.655 89.7689C115.085 89.7689 113.657 89.3407 112.373 88.4841C111.112 87.6282 109.994 86.4738 109.018 85.0231C108.067 83.5479 107.246 81.8945 106.556 80.0624C105.89 78.231 105.355 76.339 104.95 74.3886C104.546 72.4136 104.272 70.4986 104.13 68.6434C103.987 66.7874 103.963 65.1218 104.058 63.6473L114.193 62.8974C114.05 63.8254 113.895 65.0267 113.729 66.5019C113.562 67.9533 113.42 69.5353 113.301 71.2477C113.182 72.9371 113.122 74.6265 113.122 76.3152C113.122 77.9808 113.206 79.5151 113.373 80.919C113.562 82.299 113.884 83.4166 114.336 84.2732C114.788 85.106 115.394 85.5221 116.156 85.5221C116.989 85.5221 117.666 85.1659 118.19 84.452C118.737 83.7382 119.142 82.7749 119.403 81.5614C119.689 80.3479 119.855 78.9801 119.903 77.4573C119.974 75.9114 119.951 74.3049 119.832 72.6401C119.736 70.9745 119.581 69.3449 119.367 67.7507C119.177 66.1572 118.939 64.6935 118.653 63.3618L129.253 61.6133C129.276 63.4685 129.24 65.4434 129.145 67.5366C129.074 69.6305 128.896 71.7359 128.61 73.8528C128.348 75.9467 127.932 77.9454 127.361 79.8482C126.814 81.7518 126.076 83.4527 125.149 84.9517C124.221 86.45 123.055 87.6282 121.651 88.4841C120.271 89.3407 118.606 89.7689 116.655 89.7689ZM99.0983 89.4481C97.4089 89.4481 95.9336 89.0198 94.6725 88.1632C93.4122 87.3066 92.3292 86.153 91.4257 84.7015C90.5453 83.2263 89.82 81.573 89.2489 79.7415C88.7017 77.9094 88.2849 76.0181 87.9994 74.067C87.7376 72.0928 87.5711 70.1777 87.5004 68.3218C87.4528 66.4666 87.4766 64.801 87.5711 63.3257L97.7059 62.5766C97.6108 63.0287 97.5156 63.7778 97.4204 64.8248C97.3252 65.8479 97.2423 67.0607 97.1709 68.4646C97.0995 69.8446 97.052 71.2953 97.0282 72.8182C97.0282 74.341 97.0758 75.84 97.1709 77.3145C97.2661 78.766 97.4327 80.0862 97.6706 81.2759C97.9323 82.4656 98.2655 83.4166 98.67 84.1305C99.0745 84.8443 99.5972 85.2012 100.24 85.2012C101.168 85.2012 101.893 84.8328 102.416 84.0951C102.94 83.3337 103.321 82.3228 103.559 81.0617C103.82 79.7769 103.975 78.3615 104.023 76.8148C104.094 75.2689 104.106 73.6863 104.058 72.069C104.034 70.451 104.011 68.9166 103.987 67.4652C103.963 65.9907 103.987 64.7173 104.058 63.6473L108.483 71.9976C108.459 73.1635 108.4 74.4001 108.305 75.7088C108.234 77.0175 108.079 78.3261 107.841 79.6341C107.627 80.9428 107.306 82.1801 106.877 83.3453C106.449 84.5112 105.89 85.5581 105.2 86.4861C104.534 87.3903 103.701 88.1156 102.702 88.6629C101.703 89.1864 100.501 89.4481 99.0983 89.4481Z" fill="white"/>
<path d="M72.8461 89.6255C70.515 89.6255 68.4687 89.2448 66.7087 88.4833C64.9717 87.7226 63.5205 86.6995 62.3548 85.4146C61.189 84.1059 60.3088 82.643 59.714 81.025C59.143 79.4077 58.8575 77.7421 58.8575 76.0289C58.8575 74.2927 59.1549 72.6033 59.7497 70.9622C60.3444 69.2966 61.2247 67.7976 62.3905 66.4658C63.5801 65.1334 65.0431 64.0749 66.78 63.2897C68.5163 62.4807 70.515 62.0762 72.7747 62.0762C75.1065 62.0762 77.1406 62.4684 78.8775 63.2536C80.6376 64.0388 82.1128 65.0973 83.3025 66.4298C84.4915 67.7385 85.3842 69.213 85.979 70.8548C86.5731 72.4966 86.8709 74.1737 86.8709 75.8869C86.8709 77.5993 86.5731 79.2764 85.979 80.9182C85.3842 82.56 84.4915 84.0346 83.3025 85.3432C82.1366 86.6519 80.6736 87.6989 78.9129 88.4833C77.1759 89.2448 75.1541 89.6255 72.8461 89.6255ZM73.4532 81.1324C74.5232 81.1324 75.475 80.8944 76.3078 80.4186C77.1644 79.9427 77.8782 79.3125 78.4493 78.5273C79.0203 77.7421 79.4479 76.8617 79.7334 75.8869C80.0427 74.9113 80.1978 73.912 80.1978 72.8888C80.1978 71.8657 80.0427 70.9024 79.7334 69.9982C79.4479 69.0702 79.0319 68.2497 78.4846 67.5359C77.9373 66.7982 77.2711 66.2279 76.4866 65.8234C75.7014 65.3951 74.821 65.1809 73.8455 65.1809C72.394 65.1809 71.205 65.5494 70.2771 66.287C69.3491 67.0008 68.659 67.9526 68.207 69.1416C67.7549 70.3075 67.5292 71.5924 67.5292 72.9962C67.5292 74.0187 67.6597 75.018 67.9214 75.9936C68.1832 76.9453 68.5639 77.8135 69.0635 78.5987C69.587 79.3601 70.2172 79.9787 70.9548 80.4546C71.6924 80.906 72.5252 81.1324 73.4532 81.1324Z" fill="white"/>
<path d="M40.8757 88.2692C41.1136 86.0333 41.2921 84.0584 41.4109 82.3459C41.5537 80.6327 41.637 79.0508 41.6608 77.5993C41.6846 76.1241 41.6489 74.6611 41.5537 73.2104C41.4585 71.7352 41.292 70.1532 41.0541 68.4638C40.84 66.7506 40.5545 64.788 40.1977 62.5759L50.0826 62.0762C50.0826 64.5738 49.9993 66.9172 49.8328 69.1063C49.6901 71.2946 49.464 73.3885 49.1548 75.3872C48.8693 77.3852 48.5124 79.3601 48.0842 81.3105C47.656 83.2378 47.1683 85.2127 46.6211 87.2345L40.8757 88.2692ZM58.5401 88.6261C57.6837 88.7689 56.6488 88.8878 55.4355 88.983C54.2459 89.0544 52.9732 89.102 51.6171 89.1258C50.2849 89.1496 48.9407 89.138 47.5846 89.0904C46.2523 89.0429 45.0034 88.9592 43.8376 88.8403C42.6719 88.6975 41.6846 88.5071 40.8757 88.2692L42.6957 84.0584C44.932 84.4153 47.2634 84.4751 49.6901 84.2372C52.1167 83.9992 54.8288 83.4873 57.8264 82.7028L58.5401 88.6261Z" fill="white"/>
<path d="M29.6679 89.8039C29.7868 86.6155 29.8344 83.5944 29.8106 80.7391C29.7868 77.8845 29.6798 75.0415 29.4894 72.2107C29.3229 69.3792 29.0612 66.4056 28.7044 63.2893L38.5893 61.7903C38.6369 64.2404 38.6369 66.5246 38.5893 68.6416C38.5655 70.7355 38.4823 72.7933 38.3395 74.8158C38.2206 76.8376 38.0421 78.9552 37.8042 81.1674C37.5901 83.3802 37.3046 85.8303 36.9477 88.5191L29.6679 89.8039ZM33.0223 59.899L30.9526 58.2572L37.0191 51.6201L40.0168 54.5461L33.0223 59.899Z" fill="white"/>
<path d="M3.81667 89.8046C3.93564 86.6162 3.98323 83.5713 3.95943 80.6691C3.93564 77.7425 3.82856 74.8403 3.63828 71.9612C3.47172 69.059 3.21006 66.0494 2.85315 62.9331L13.095 61.791C13.1426 64.2411 13.1307 66.5253 13.0593 68.643C12.9879 70.7362 12.8571 72.794 12.6668 74.8165C12.5002 76.8383 12.2861 78.956 12.0244 81.1681C11.7627 83.3809 11.4534 85.831 11.0966 88.5198L3.81667 89.8046ZM11.0966 88.5198V79.3843C11.3583 78.2183 11.8103 76.9457 12.4526 75.5657C13.095 74.1856 13.9039 72.8063 14.8793 71.4262C15.8547 70.0461 16.9728 68.7497 18.2337 67.5362C19.4946 66.2996 20.8626 65.2289 22.3376 64.3247C23.8364 63.4206 25.4185 62.7781 27.0838 62.3974L27.4049 71.2474C25.3352 71.3901 23.3844 71.8422 21.5525 72.6036C19.7445 73.3413 18.1148 74.4235 16.6635 75.8512C15.2123 77.255 13.999 79.0151 13.0236 81.1328C12.072 83.2259 11.4296 85.6883 11.0966 88.5198ZM17.6628 89.1622C17.6628 87.9249 17.5557 86.7352 17.3416 85.5931C17.1275 84.4517 16.8301 83.4047 16.4495 82.453C16.0688 81.5012 15.6049 80.7045 15.0577 80.062C14.5105 79.3958 13.9158 78.9437 13.2734 78.7058L16.0569 74.2094C17.1275 74.5187 18.2694 74.9831 19.4827 75.6017C20.7199 76.1958 21.9094 77.0286 23.0513 78.0994C24.217 79.1463 25.24 80.4665 26.1203 82.0607C27.0005 83.6542 27.631 85.5815 28.0116 87.8413L17.6628 89.1622Z" fill="white"/>
<path d="M71.4336 30.5097L74.9393 33.6793L74.9299 33.6975C76.938 30.68 79.4017 28.099 82.314 25.9726C85.2255 23.8463 88.4947 22.1319 92.1352 20.8248C93.8621 20.2046 95.4909 19.7699 97.0707 19.533C98.6325 19.2875 100.105 19.254 101.452 19.4156L100.01 8.15025C97.0628 6.53672 93.4006 6.48574 89.0456 7.97446C85.966 9.00518 83.141 10.6199 80.5785 12.8009C78.0159 14.9819 75.9004 17.5729 74.2492 20.5824C72.5858 23.5966 71.6557 26.9025 71.4336 30.5097Z" fill="#008000"/>
<path d="M71.4336 30.5097L74.9393 33.6793L74.9299 33.6975C76.938 30.68 79.4017 28.099 82.314 25.9726C85.2255 23.8463 88.4947 22.1319 92.1352 20.8248C93.8621 20.2046 95.4909 19.7699 97.0707 19.533C98.6325 19.2875 100.105 19.254 101.452 19.4156L100.01 8.15025C97.0628 6.53672 93.4006 6.48574 89.0456 7.97446C85.966 9.00518 83.141 10.6199 80.5785 12.8009C78.0159 14.9819 75.9004 17.5729 74.2492 20.5824C72.5858 23.5966 71.6557 26.9025 71.4336 30.5097Z" fill="#008000"/>
<path d="M71.2439 30.5097L67.739 33.6793L67.7476 33.6975C65.7396 30.68 63.2759 28.099 60.364 25.9726C57.4521 23.8463 54.1829 22.1319 50.5426 20.8248C48.8154 20.2046 47.1866 19.7699 45.6071 19.533C44.0456 19.2875 42.5727 19.254 41.2253 19.4156L42.6679 8.15025C45.6154 6.53672 49.2775 6.48574 53.6325 7.97446C56.7121 9.00518 59.5371 10.6199 62.0995 12.8009C64.6616 14.9819 66.7779 17.5729 68.4283 20.5824C70.0925 23.5966 71.0219 26.9025 71.2439 30.5097Z" fill="#3EED3E"/>
<path d="M107.576 30.543V30.6812L97.6014 40.6659H45.7191L35.6064 30.543H71.5915H107.576Z" fill="#3433CC"/>
<path d="M107.605 30.5195V30.6578L97.6309 40.6424L71.355 40.6426V30.5197H101.608L107.605 30.5195Z" fill="#FF9811"/>
</svg>
