<svg width="189" height="36" viewBox="0 0 189 36" fill="none" xmlns="http://www.w3.org/2000/svg">
<path d="M25.817 27.5462L28.3432 29.8302L28.3364 29.8433C29.7834 27.6689 31.5588 25.809 33.6574 24.2768C35.7554 22.7445 38.1112 21.5091 40.7345 20.5673C41.9789 20.1203 43.1526 19.8071 44.291 19.6364C45.4164 19.4595 46.4774 19.4353 47.4485 19.5518L46.4093 11.434C44.2853 10.2713 41.6464 10.2346 38.5081 11.3073C36.289 12.0501 34.2533 13.2137 32.4068 14.7853C30.5602 16.3569 29.0358 18.224 27.8459 20.3926C26.6473 22.5646 25.977 24.9468 25.817 27.5462Z" fill="#008000"/>
<path d="M25.817 27.5462L28.3432 29.8302L28.3364 29.8433C29.7834 27.6689 31.5588 25.809 33.6574 24.2768C35.7554 22.7445 38.1112 21.5091 40.7345 20.5673C41.9789 20.1203 43.1526 19.8071 44.291 19.6364C45.4164 19.4595 46.4774 19.4353 47.4485 19.5518L46.4093 11.434C44.2853 10.2713 41.6464 10.2346 38.5081 11.3073C36.289 12.0501 34.2533 13.2137 32.4068 14.7853C30.5602 16.3569 29.0358 18.224 27.8459 20.3926C26.6473 22.5646 25.977 24.9468 25.817 27.5462Z" fill="#008000"/>
<path d="M25.6803 27.5462L23.1547 29.8302L23.1609 29.8433C21.7139 27.6689 19.9386 25.809 17.8403 24.2768C15.742 22.7445 13.3862 21.5091 10.763 20.5673C9.51843 20.1203 8.34471 19.8071 7.20648 19.6364C6.08128 19.4595 5.01995 19.4353 4.04897 19.5518L5.08853 11.434C7.21245 10.2713 9.85138 10.2346 12.9896 11.3073C15.2087 12.0501 17.2444 13.2137 19.0909 14.7853C20.9371 16.3569 22.4621 18.224 23.6514 20.3926C24.8506 22.5646 25.5203 24.9468 25.6803 27.5462Z" fill="#3EED3E"/>
<path d="M51.8612 27.5698V27.6694L44.6734 34.8644H7.2872L0 27.5698H25.9308H51.8612Z" fill="#3433CC"/>
<path d="M51.882 27.5527V27.6523L44.6947 34.8473L25.7603 34.8474V27.5528H47.5607L51.882 27.5527Z" fill="#FF9811"/>
<path d="M179.279 35.375C179.389 32.4212 179.433 29.6223 179.411 26.977C179.389 24.3324 179.29 21.6985 179.114 19.076C178.96 16.4527 178.717 13.6979 178.386 10.8108L187.544 9.42208C187.588 11.6919 187.588 13.8081 187.544 15.7694C187.522 17.7092 187.445 19.6157 187.313 21.4894C187.203 23.3625 187.037 25.3244 186.816 27.3738C186.619 29.4239 186.354 31.6937 186.024 34.1847L179.279 35.375ZM182.387 7.66992L180.469 6.1489L186.09 0L188.867 2.71072L182.387 7.66992Z" fill="#008000"/>
<path d="M165.651 35.3429C164.196 35.3429 162.874 34.9461 161.684 34.1525C160.516 33.3596 159.479 32.2901 158.576 30.9461C157.695 29.5794 156.934 28.0477 156.294 26.3503C155.678 24.6536 155.182 22.9008 154.807 21.0938C154.432 19.2642 154.179 17.49 154.047 15.7713C153.914 14.0518 153.892 12.5088 153.981 11.1427L163.37 10.448C163.238 11.3077 163.094 12.4206 162.94 13.7873C162.785 15.132 162.654 16.5976 162.544 18.1841C162.433 19.7492 162.378 21.3143 162.378 22.8787C162.378 24.4218 162.455 25.8433 162.61 27.1439C162.785 28.4224 163.083 29.4578 163.502 30.2514C163.921 31.0229 164.483 31.4084 165.188 31.4084C165.96 31.4084 166.588 31.0784 167.073 30.4171C167.58 29.7558 167.954 28.8633 168.197 27.7391C168.461 26.6148 168.616 25.3476 168.66 23.9368C168.726 22.5047 168.704 21.0164 168.594 19.474C168.505 17.9309 168.362 16.4212 168.163 14.9443C167.987 13.468 167.767 12.112 167.502 10.8782L177.322 9.2583C177.344 10.9771 177.31 12.8067 177.222 14.7459C177.156 16.6857 176.991 18.6363 176.726 20.5975C176.484 22.5374 176.098 24.3891 175.569 26.1519C175.062 27.9154 174.379 29.4912 173.519 30.88C172.66 32.2681 171.58 33.3596 170.28 34.1525C169.001 34.9461 167.458 35.3429 165.651 35.3429ZM149.385 35.0456C147.82 35.0456 146.454 34.6488 145.285 33.8552C144.118 33.0617 143.114 31.9929 142.277 30.6482C141.462 29.2815 140.79 27.7498 140.261 26.0531C139.754 24.3557 139.367 22.6035 139.103 20.7959C138.86 18.967 138.706 17.1928 138.641 15.4733C138.597 13.7546 138.619 12.2115 138.706 10.8448L148.095 10.1507C148.007 10.5696 147.919 11.2636 147.831 12.2336C147.743 13.1814 147.666 14.305 147.6 15.6056C147.534 16.8841 147.49 18.2282 147.468 19.639C147.468 21.0498 147.512 22.4385 147.6 23.8046C147.688 25.1493 147.842 26.3724 148.063 27.4745C148.305 28.5767 148.614 29.4578 148.989 30.1191C149.363 30.7805 149.848 31.1111 150.443 31.1111C151.303 31.1111 151.975 30.7698 152.459 30.0864C152.944 29.381 153.297 28.4445 153.518 27.2761C153.76 26.0858 153.904 24.7745 153.948 23.3417C154.013 21.9095 154.025 20.4432 153.981 18.9449C153.958 17.4459 153.936 16.0244 153.914 14.6798C153.892 13.3137 153.914 12.134 153.981 11.1427L158.08 18.8788C158.058 19.9589 158.003 21.1045 157.915 22.3169C157.849 23.5294 157.705 24.7418 157.485 25.9535C157.286 27.1659 156.989 28.3122 156.592 29.3917C156.196 30.4718 155.678 31.4418 155.039 32.3015C154.421 33.1391 153.65 33.8112 152.724 34.3182C151.798 34.8031 150.685 35.0456 149.385 35.0456Z" fill="#008000"/>
<path d="M125.064 35.2098C122.905 35.2098 121.009 34.8571 119.378 34.1517C117.769 33.447 116.425 32.4991 115.345 31.3087C114.265 30.0963 113.449 28.7409 112.898 27.2419C112.369 25.7436 112.105 24.2006 112.105 22.6134C112.105 21.0049 112.38 19.4398 112.931 17.9194C113.482 16.3763 114.298 14.9876 115.378 13.7538C116.48 12.5193 117.835 11.5387 119.444 10.8113C121.053 10.0618 122.905 9.68701 124.998 9.68701C127.158 9.68701 129.043 10.0504 130.652 10.7779C132.283 11.5053 133.649 12.4859 134.752 13.7204C135.853 14.9328 136.68 16.2988 137.231 17.8199C137.782 19.3409 138.057 20.8946 138.057 22.4818C138.057 24.0683 137.782 25.6221 137.231 27.1431C136.68 28.6641 135.853 30.0302 134.752 31.2426C133.671 32.455 132.316 33.4249 130.685 34.1517C129.076 34.8571 127.203 35.2098 125.064 35.2098ZM125.627 27.3415C126.618 27.3415 127.5 27.121 128.271 26.6802C129.065 26.2393 129.726 25.6555 130.255 24.928C130.784 24.2006 131.18 23.3849 131.445 22.4818C131.732 21.578 131.875 20.6522 131.875 19.7043C131.875 18.7564 131.732 17.864 131.445 17.0263C131.18 16.1666 130.795 15.4064 130.288 14.7451C129.781 14.0617 129.164 13.5333 128.437 13.1586C127.71 12.7618 126.894 12.5634 125.99 12.5634C124.645 12.5634 123.544 12.9047 122.684 13.5881C121.825 14.2494 121.185 15.1312 120.766 16.2327C120.348 17.3129 120.139 18.5032 120.139 19.8038C120.139 20.751 120.259 21.6769 120.502 22.5807C120.744 23.4624 121.097 24.2667 121.56 24.9941C122.045 25.6995 122.629 26.2727 123.312 26.7136C123.996 27.1317 124.767 27.3415 125.627 27.3415Z" fill="#008000"/>
<path d="M95.4457 33.9533C95.666 31.8818 95.8314 30.0522 95.9415 28.4657C96.0738 26.8786 96.1509 25.413 96.173 24.0683C96.195 22.7016 96.1619 21.3462 96.0738 20.0022C95.9856 18.6355 95.8314 17.1699 95.6109 15.6048C95.4126 14.0176 95.1481 12.1993 94.8175 10.1499L103.975 9.68701C103.975 12.0009 103.898 14.1719 103.744 16.2C103.612 18.2273 103.402 20.1672 103.116 22.0189C102.851 23.8699 102.521 25.6995 102.124 27.5065C101.727 29.292 101.275 31.1217 100.768 32.9947L95.4457 33.9533ZM111.811 34.284C111.017 34.4162 110.058 34.5264 108.934 34.6146C107.832 34.6807 106.653 34.7248 105.397 34.7469C104.163 34.7689 102.917 34.7582 101.661 34.7141C100.427 34.6701 99.2697 34.5926 98.1897 34.4824C97.1097 34.3501 96.195 34.1737 95.4457 33.9533L97.1317 30.0522C99.2035 30.3829 101.364 30.4383 103.612 30.2179C105.86 29.9974 108.372 29.5232 111.15 28.7964L111.811 34.284Z" fill="#008000"/>
<path d="M85.0622 35.375C85.1724 32.4212 85.2165 29.6223 85.1944 26.977C85.1724 24.3324 85.0732 21.6985 84.8969 19.076C84.7426 16.4527 84.5002 13.6979 84.1696 10.8108L93.3274 9.42208C93.3715 11.6919 93.3715 13.8081 93.3274 15.7694C93.3053 17.7092 93.2282 19.6157 93.0959 21.4894C92.9858 23.3625 92.8205 25.3244 92.6 27.3738C92.4017 29.4239 92.1372 31.6937 91.8066 34.1847L85.0622 35.375ZM88.1699 7.66992L86.2524 6.1489L91.8727 0L94.6498 2.71072L88.1699 7.66992Z" fill="#008000"/>
<path d="M61.1126 35.3758C61.2228 32.422 61.2669 29.601 61.2449 26.9123C61.2228 24.2009 61.1236 21.5122 60.9474 18.8449C60.793 16.1563 60.5506 13.368 60.22 10.481L69.7085 9.42285C69.7525 11.6927 69.7415 13.8089 69.6754 15.7708C69.6093 17.71 69.488 19.6165 69.3117 21.4902C69.1574 23.3633 68.959 25.3252 68.7166 27.3746C68.4741 29.4247 68.1876 31.6945 67.857 34.1855L61.1126 35.3758ZM67.857 34.1855V25.722C68.0994 24.6418 68.5182 23.4628 69.1133 22.1842C69.7084 20.9057 70.4578 19.6278 71.3615 18.3493C72.2651 17.0707 73.301 15.8697 74.4692 14.7454C75.6373 13.5998 76.9046 12.6079 78.2712 11.7702C79.6597 10.9325 81.1254 10.3373 82.6682 9.98464L82.9658 18.1836C81.0483 18.3159 79.241 18.7347 77.5438 19.4401C75.8688 20.1235 74.359 21.1261 73.0145 22.4488C71.67 23.7494 70.546 25.3799 69.6423 27.3418C68.7607 29.281 68.1656 31.5622 67.857 34.1855ZM73.9402 34.7806C73.9402 33.6344 73.841 32.5322 73.6427 31.4741C73.4443 30.4166 73.1688 29.4467 72.8162 28.5649C72.4635 27.6832 72.0337 26.9451 71.5268 26.3499C71.0199 25.7326 70.4688 25.3138 69.8737 25.0934L72.4524 20.9277C73.4443 21.2143 74.5023 21.6445 75.6263 22.2176C76.7724 22.7681 77.8744 23.5396 78.9324 24.5316C80.0124 25.5015 80.9601 26.7246 81.7756 28.2016C82.5911 29.6778 83.1752 31.4634 83.5278 33.5569L73.9402 34.7806Z" fill="#008000"/>
</svg>
